<svg xmlns="http://www.w3.org/2000/svg" xmlns:xlink="http://www.w3.org/1999/xlink" viewBox="0 0 485.34 563.83"><defs><style>.cls-1{fill:#fcee21;}.cls-2{fill:#6a5400;}.cls-3{fill:url(#linear-gradient);}</style><linearGradient id="linear-gradient" x1="79.25" y1="408.31" x2="486.73" y2="187.75" gradientUnits="userSpaceOnUse"><stop offset="0" stop-color="#fcee21"/><stop offset="1" stop-color="#f15a24"/></linearGradient></defs><title>Asset 1</title><g id="Layer_2" data-name="Layer 2"><g id="Layer_1-2" data-name="Layer 1"><path class="cls-1" d="M464.41,297.9l-3.07,173.27c-8,43-36,60-34,59-3,3-24.68,8.49-30.93,9.8a477.85,477.85,0,0,1-97.6,10.43c-81.6,0-148.8-20.8-201.61-71.2C50.8,434.4,22,362.4,22,278.4,22.8,117.6,133.2,0,314,0c62.4,0,111.2,13.6,134.4,24.8l-1.61,5.43,1.54-5.06s-4,64,37,104L431.65,81.45l0,.15c-28.8-12.8-64.8-23.2-119.2-23.2C181.2,58.4,95.6,140,95.6,275.2c0,136.8,82.41,217.6,208,217.6,45.6,0,77.8-14.4,95.73-35.63S409.48,330,396.41,317.6s-109.6,0-109.6,0v-.55c6.65-1.76,82.11-22.25,109.17-55.45h8.21C437.91,265.28,459.77,291.77,464.41,297.9Z"/><path class="cls-2" d="M442.41,310.9l-3.07,173.27c-8,43-36,60-34,59-3,3-24.68,8.49-30.93,9.8a477.85,477.85,0,0,1-97.6,10.43c-81.6,0-148.8-20.8-201.61-71.2C28.8,447.4,0,375.4,0,291.4.8,130.6,111.2,13,292,13c62.4,0,111.2,13.6,134.4,24.8l-1.61,5.43,1.54-5.06s-4,64,37,104L409.65,94.45l0,.15c-28.8-12.8-64.8-23.2-119.2-23.2C159.2,71.4,73.6,153,73.6,288.2c0,136.8,82.41,217.6,208,217.6,45.6,0,77.8-14.4,95.73-35.63S387.48,343,374.41,330.6s-109.6,0-109.6,0v-.55c6.65-1.76,82.11-22.25,109.17-55.45h8.21C415.91,278.28,437.77,304.77,442.41,310.9Z"/><path class="cls-3" d="M456.88,311.33,453.81,484.6c-8,43-36,60-34,59-3,3-24.68,8.49-30.93,9.8a477.85,477.85,0,0,1-97.6,10.43c-81.6,0-148.8-20.8-201.61-71.2-46.4-44.8-75.2-116.8-75.2-200.8.8-160.8,111.2-278.4,292-278.4,62.4,0,111.2,13.6,134.4,24.8l-1.61,5.43,1.54-5.06s-4,64,37,104L424.12,94.88l0,.15c-28.8-12.8-64.8-23.2-119.2-23.2-131.21,0-216.81,81.6-216.81,216.8,0,136.8,82.41,217.6,208,217.6,45.6,0,77.8-14.4,95.73-35.63S402,343.46,388.88,331s-109.6,0-109.6,0v-.55c6.65-1.76,82.11-22.25,109.17-55.45h8.21C430.38,278.71,452.24,305.2,456.88,311.33Z"/></g></g></svg>