<?xml version="1.0" encoding="utf-8"?>
<!-- Generator: Adobe Illustrator 21.1.0, SVG Export Plug-In . SVG Version: 6.00 Build 0)  -->
<svg version="1.1" id="Layer_1" xmlns="http://www.w3.org/2000/svg" xmlns:xlink="http://www.w3.org/1999/xlink" x="0px" y="0px"
	 viewBox="0 0 800 800" style="enable-background:new 0 0 800 800;" xml:space="preserve">
<style type="text/css">
	.st0{fill:#0D0D0D;}
	.st1{fill:#FCEE21;}
	.st2{fill:#6A5400;}
	.st3{fill:url(#SVGID_1_);}
	.st4{fill:url(#SVGID_2_);}
	.st5{fill:url(#SVGID_3_);}
	.st6{fill:url(#SVGID_4_);}
	.st7{fill:url(#SVGID_5_);}
	.st8{fill:url(#SVGID_6_);}
</style>
<rect class="st0" width="800" height="800"/>
<path class="st1" d="M575.6,384.3l-3.1,173.3c-8,43-36,60-34,59c-3,3-24.7,8.5-30.9,9.8c-28.2,5.9-61.5,10.4-97.6,10.4
	c-81.6,0-148.8-20.8-201.6-71.2c-46.4-44.8-75.2-116.8-75.2-200.8C134,204,244.4,86.4,425.2,86.4c62.4,0,111.2,13.6,134.4,24.8
	l-1.6,5.4l1.5-5.1c0,0-4,64,37,104l-53.7-47.7v0.2c-28.8-12.8-64.8-23.2-119.2-23.2c-131.2,0-216.8,81.6-216.8,216.8
	c0,136.8,82.4,217.6,208,217.6c45.6,0,77.8-14.4,95.7-35.6s10.1-127.1-2.9-139.6S398,404,398,404v-0.5c6.7-1.8,82.1-22.3,109.2-55.5
	h8.2C549.1,351.7,571,378.2,575.6,384.3z"/>
<path class="st1" d="M575.6,384.3l-3.1,173.3c-8,43-36,60-34,59c-3,3-24.7,8.5-30.9,9.8c-28.2,5.9-61.5,10.4-97.6,10.4
	c-81.6,0-148.8-20.8-201.6-71.2c-46.4-44.8-75.2-116.8-75.2-200.8C134,204,244.4,86.4,425.2,86.4c62.4,0,111.2,13.6,134.4,24.8
	l-1.6,5.4l1.5-5.1c0,0-4,64,37,104l-53.7-47.7v0.2c-28.8-12.8-64.8-23.2-119.2-23.2c-131.2,0-216.8,81.6-216.8,216.8
	c0,136.8,82.4,217.6,208,217.6c45.6,0,77.8-14.4,95.7-35.6s10.1-127.1-2.9-139.6S398,404,398,404v-0.5c6.7-1.8,82.1-22.3,109.2-55.5
	h8.2C549.1,351.7,571,378.2,575.6,384.3z"/>
<path class="st1" d="M575.6,384.3l-3.1,173.3c-8,43-36,60-34,59c-3,3-24.7,8.5-30.9,9.8c-28.2,5.9-61.5,10.4-97.6,10.4
	c-81.6,0-148.8-20.8-201.6-71.2c-46.4-44.8-75.2-116.8-75.2-200.8C134,204,244.4,86.4,425.2,86.4c62.4,0,111.2,13.6,134.4,24.8
	l-1.6,5.4l1.5-5.1c0,0-4,64,37,104l-53.7-47.7v0.2c-28.8-12.8-64.8-23.2-119.2-23.2c-131.2,0-216.8,81.6-216.8,216.8
	c0,136.8,82.4,217.6,208,217.6c45.6,0,77.8-14.4,95.7-35.6s10.1-127.1-2.9-139.6S398,404,398,404v-0.5c6.7-1.8,82.1-22.3,109.2-55.5
	h8.2C549.1,351.7,571,378.2,575.6,384.3z"/>
<path class="st1" d="M575.6,384.3l-3.1,173.3c-8,43-36,60-34,59c-3,3-24.7,8.5-30.9,9.8c-28.2,5.9-61.5,10.4-97.6,10.4
	c-81.6,0-148.8-20.8-201.6-71.2c-46.4-44.8-75.2-116.8-75.2-200.8C134,204,244.4,86.4,425.2,86.4c62.4,0,111.2,13.6,134.4,24.8
	l-1.6,5.4l1.5-5.1c0,0-4,64,37,104l-53.7-47.7v0.2c-28.8-12.8-64.8-23.2-119.2-23.2c-131.2,0-216.8,81.6-216.8,216.8
	c0,136.8,82.4,217.6,208,217.6c45.6,0,77.8-14.4,95.7-35.6s10.1-127.1-2.9-139.6S398,404,398,404v-0.5c6.7-1.8,82.1-22.3,109.2-55.5
	h8.2C549.1,351.7,571,378.2,575.6,384.3z"/>
<path class="st2" d="M553.6,397.3l-3.1,173.3c-8,43-36,60-34,59c-3,3-24.7,8.5-30.9,9.8c-28.2,5.9-61.5,10.4-97.6,10.4
	c-81.6,0-148.8-20.8-201.6-71.2c-46.4-44.8-75.2-116.8-75.2-200.8C112,217,222.4,99.4,403.2,99.4c62.4,0,111.2,13.6,134.4,24.8
	l-1.6,5.4l1.5-5.1c0,0-4,64,37,104l-53.7-47.7v0.2c-28.8-12.8-64.8-23.2-119.2-23.2c-131.2,0-216.8,81.6-216.8,216.8
	c0,136.8,82.4,217.6,208,217.6c45.6,0,77.8-14.4,95.7-35.6s10.1-127.1-2.9-139.6S376,417,376,417v-0.5c6.7-1.8,82.1-22.3,109.2-55.5
	h8.2C527.1,364.7,549,391.2,553.6,397.3z"/>
<linearGradient id="SVGID_1_" gradientUnits="userSpaceOnUse" x1="190.4402" y1="305.2916" x2="597.9163" y2="525.8526" gradientTransform="matrix(1 0 0 -1 0 800)">
	<stop  offset="0" style="stop-color:#FCEE21"/>
	<stop  offset="1" style="stop-color:#F15A24"/>
</linearGradient>
<path class="st3" d="M568.1,397.7L565,571c-8,43-36,60-34,59c-3,3-24.7,8.5-30.9,9.8c-28.2,5.9-61.5,10.4-97.6,10.4
	c-81.6,0-148.8-20.8-201.6-71.2c-46.4-44.8-75.2-116.8-75.2-200.8c0.8-160.8,111.2-278.4,292-278.4c62.4,0,111.2,13.6,134.4,24.8
	l-1.6,5.4l1.5-5.1c0,0-4,64,37,104l-53.7-47.7v0.2c-28.8-12.8-64.8-23.2-119.2-23.2c-131.2,0-216.8,81.6-216.8,216.8
	c0,136.8,82.4,217.6,208,217.6c45.6,0,77.8-14.4,95.7-35.6s10.1-127.1-2.9-139.6s-109.6,0-109.6,0v-0.5
	c6.7-1.8,82.1-22.3,109.2-55.5h8.2C541.6,365.1,563.4,391.6,568.1,397.7z"/>
<linearGradient id="SVGID_2_" gradientUnits="userSpaceOnUse" x1="390" y1="383.05" x2="390.47" y2="383.05" gradientTransform="matrix(1 0 0 -1 0 800)">
	<stop  offset="0" style="stop-color:#FCEE21"/>
	<stop  offset="1" style="stop-color:#F15A24"/>
</linearGradient>
<path class="st4" d="M390,417c0,0,0.2,0,0.5-0.1v0.1H390z"/>
<linearGradient id="SVGID_3_" gradientUnits="userSpaceOnUse" x1="499.64" y1="438.8" x2="507.85" y2="438.8" gradientTransform="matrix(1 0 0 -1 0 800)">
	<stop  offset="0" style="stop-color:#FCEE21"/>
	<stop  offset="1" style="stop-color:#F15A24"/>
</linearGradient>
<path class="st5" d="M500,361c2.7,0,5.3,0.1,7.8,0.4h-8.2C499.8,361.3,499.9,361.1,500,361z"/>
<linearGradient id="SVGID_4_" gradientUnits="userSpaceOnUse" x1="568.07" y1="401.55" x2="569" y2="401.55" gradientTransform="matrix(1 0 0 -1 0 800)">
	<stop  offset="0" style="stop-color:#FCEE21"/>
	<stop  offset="1" style="stop-color:#F15A24"/>
</linearGradient>
<path class="st6" d="M569,399l-0.9,0.2v-1.5C568.7,398.5,569,399,569,399z"/>
<linearGradient id="SVGID_5_" gradientUnits="userSpaceOnUse" x1="500" y1="162.15" x2="518.03" y2="162.15" gradientTransform="matrix(1 0 0 -1 0 800)">
	<stop  offset="0" style="stop-color:#FCEE21"/>
	<stop  offset="1" style="stop-color:#F15A24"/>
</linearGradient>
<path class="st7" d="M518,635.7c-10.3,3.9-18,4.3-18,4.3l0.1-0.2C506.3,638.5,512.3,637.1,518,635.7z"/>
<linearGradient id="SVGID_6_" gradientUnits="userSpaceOnUse" x1="568.1658" y1="235.8476" x2="569.0953" y2="235.814" gradientTransform="matrix(1 0 0 -1 0 800)">
	<stop  offset="0" style="stop-color:#FCEE21"/>
	<stop  offset="1" style="stop-color:#F15A24"/>
</linearGradient>
<path class="st8" d="M569,565c-0.3,2-0.6,3.9-0.9,5.8v-13.3C568.4,559.8,568.7,562.3,569,565z"/>
</svg>
